<svg xmlns="http://www.w3.org/2000/svg" width="920" height="400" viewBox="0 0 920 400">
  <rect width="920" height="400" fill="#0d0d1a"/>
    <g fill="#e29a5b" fill-opacity="0.55">
    <circle cx="796.3" cy="140.0" r="3.2"/>
    <circle cx="796.6" cy="147.6" r="3.2"/>
    <circle cx="790.8" cy="146.7" r="3.2"/>
    <circle cx="807.5" cy="140.8" r="3.2"/>
    <circle cx="806.9" cy="142.4" r="3.2"/>
    <circle cx="801.6" cy="143.0" r="3.2"/>
    <circle cx="784.8" cy="136.8" r="3.2"/>
    <circle cx="802.5" cy="140.1" r="3.2"/>
    <circle cx="784.6" cy="160.8" r="3.2"/>
    <circle cx="791.1" cy="149.0" r="3.2"/>
    <circle cx="800.9" cy="145.1" r="3.2"/>
    <circle cx="802.7" cy="150.7" r="3.2"/>
    <circle cx="800.9" cy="141.1" r="3.2"/>
    <circle cx="793.0" cy="128.9" r="3.2"/>
    <circle cx="802.9" cy="133.7" r="3.2"/>
    <circle cx="793.3" cy="151.6" r="3.2"/>
    <circle cx="795.6" cy="145.7" r="3.2"/>
    <circle cx="803.6" cy="142.4" r="3.2"/>
    <circle cx="794.7" cy="153.6" r="3.2"/>
    <circle cx="794.2" cy="133.4" r="3.2"/>
    <circle cx="791.8" cy="142.5" r="3.2"/>
    <circle cx="801.9" cy="158.5" r="3.2"/>
    <circle cx="798.8" cy="132.7" r="3.2"/>
    <circle cx="782.0" cy="147.7" r="3.2"/>
    <circle cx="797.5" cy="152.3" r="3.2"/>
    <circle cx="802.5" cy="145.3" r="3.2"/>
    <circle cx="786.4" cy="137.1" r="3.2"/>
    <circle cx="803.9" cy="136.0" r="3.2"/>
    <circle cx="810.2" cy="141.4" r="3.2"/>
    <circle cx="799.4" cy="156.7" r="3.2"/>
    <circle cx="803.4" cy="150.4" r="3.2"/>
    <circle cx="794.7" cy="156.4" r="3.2"/>
    <circle cx="790.5" cy="149.6" r="3.2"/>
    <circle cx="808.9" cy="163.5" r="3.2"/>
    <circle cx="786.5" cy="142.5" r="3.2"/>
    <circle cx="810.2" cy="139.4" r="3.2"/>
    <circle cx="782.9" cy="168.0" r="3.2"/>
    <circle cx="801.3" cy="151.5" r="3.2"/>
    <circle cx="789.3" cy="135.7" r="3.2"/>
    <circle cx="807.4" cy="143.3" r="3.2"/>
    <circle cx="800.4" cy="140.7" r="3.2"/>
    <circle cx="811.4" cy="139.0" r="3.2"/>
    <circle cx="802.6" cy="139.7" r="3.2"/>
    <circle cx="785.6" cy="132.9" r="3.2"/>
    <circle cx="806.2" cy="139.8" r="3.2"/>
    <circle cx="782.3" cy="150.6" r="3.2"/>
    <circle cx="805.3" cy="161.5" r="3.2"/>
    <circle cx="796.9" cy="135.3" r="3.2"/>
    <circle cx="787.7" cy="129.8" r="3.2"/>
    <circle cx="802.9" cy="146.1" r="3.2"/>
    <circle cx="801.1" cy="138.7" r="3.2"/>
    <circle cx="799.4" cy="134.1" r="3.2"/>
    <circle cx="793.0" cy="148.6" r="3.2"/>
    <circle cx="806.9" cy="144.5" r="3.2"/>
    <circle cx="791.2" cy="136.0" r="3.2"/>
    <circle cx="810.4" cy="148.8" r="3.2"/>
    <circle cx="787.1" cy="146.0" r="3.2"/>
    <circle cx="797.2" cy="147.5" r="3.2"/>
    <circle cx="809.9" cy="154.2" r="3.2"/>
    <circle cx="808.7" cy="156.4" r="3.2"/>
    <circle cx="792.0" cy="138.9" r="3.2"/>
    <circle cx="807.6" cy="136.8" r="3.2"/>
    <circle cx="801.2" cy="143.4" r="3.2"/>
    <circle cx="799.6" cy="139.4" r="3.2"/>
    <circle cx="797.0" cy="142.2" r="3.2"/>
    <circle cx="803.1" cy="144.7" r="3.2"/>
    <circle cx="804.6" cy="139.5" r="3.2"/>
    <circle cx="814.8" cy="141.7" r="3.2"/>
    <circle cx="794.9" cy="148.2" r="3.2"/>
    <circle cx="798.3" cy="136.2" r="3.2"/>
    <circle cx="795.7" cy="141.2" r="3.2"/>
    <circle cx="813.4" cy="168.4" r="3.2"/>
    <circle cx="789.2" cy="142.5" r="3.2"/>
    <circle cx="801.7" cy="142.5" r="3.2"/>
    <circle cx="794.9" cy="138.7" r="3.2"/>
    <circle cx="800.7" cy="149.5" r="3.2"/>
    <circle cx="818.2" cy="141.4" r="3.2"/>
    <circle cx="793.9" cy="145.6" r="3.2"/>
    <circle cx="796.6" cy="145.3" r="3.2"/>
    <circle cx="776.1" cy="149.2" r="3.2"/>
    <circle cx="806.6" cy="155.5" r="3.2"/>
    <circle cx="797.9" cy="135.9" r="3.2"/>
    <circle cx="805.4" cy="130.9" r="3.2"/>
    <circle cx="784.5" cy="148.0" r="3.2"/>
    <circle cx="795.6" cy="139.0" r="3.2"/>
    <circle cx="807.3" cy="169.5" r="3.2"/>
    <circle cx="807.3" cy="158.1" r="3.2"/>
    <circle cx="804.0" cy="158.5" r="3.2"/>
    <circle cx="799.8" cy="133.7" r="3.2"/>
    <circle cx="797.2" cy="143.0" r="3.2"/>
  </g>
  <g fill="#6fce9c" fill-opacity="0.55">
    <circle cx="279.4" cy="268.5" r="3.2"/>
    <circle cx="550.5" cy="155.0" r="3.2"/>
    <circle cx="658.3" cy="151.1" r="3.2"/>
    <circle cx="671.1" cy="109.4" r="3.2"/>
    <circle cx="657.6" cy="129.7" r="3.2"/>
    <circle cx="360.6" cy="229.5" r="3.2"/>
    <circle cx="348.3" cy="235.8" r="3.2"/>
    <circle cx="635.3" cy="115.8" r="3.2"/>
    <circle cx="610.9" cy="159.3" r="3.2"/>
    <circle cx="594.3" cy="145.5" r="3.2"/>
    <circle cx="302.6" cy="272.3" r="3.2"/>
    <circle cx="587.2" cy="173.4" r="3.2"/>
    <circle cx="574.1" cy="163.1" r="3.2"/>
    <circle cx="590.0" cy="148.4" r="3.2"/>
    <circle cx="403.7" cy="209.5" r="3.2"/>
    <circle cx="429.5" cy="241.3" r="3.2"/>
    <circle cx="431.8" cy="190.5" r="3.2"/>
    <circle cx="337.4" cy="251.3" r="3.2"/>
    <circle cx="319.8" cy="235.9" r="3.2"/>
    <circle cx="597.1" cy="125.1" r="3.2"/>
    <circle cx="327.6" cy="232.5" r="3.2"/>
    <circle cx="536.2" cy="200.4" r="3.2"/>
    <circle cx="411.0" cy="223.3" r="3.2"/>
    <circle cx="273.8" cy="270.8" r="3.2"/>
    <circle cx="664.1" cy="130.4" r="3.2"/>
    <circle cx="648.9" cy="139.4" r="3.2"/>
    <circle cx="445.0" cy="188.2" r="3.2"/>
    <circle cx="354.1" cy="255.1" r="3.2"/>
    <circle cx="370.7" cy="234.7" r="3.2"/>
    <circle cx="507.3" cy="171.9" r="3.2"/>
    <circle cx="373.8" cy="236.8" r="3.2"/>
    <circle cx="639.3" cy="127.7" r="3.2"/>
    <circle cx="412.3" cy="232.3" r="3.2"/>
    <circle cx="637.0" cy="127.5" r="3.2"/>
    <circle cx="439.6" cy="193.6" r="3.2"/>
    <circle cx="485.0" cy="196.3" r="3.2"/>
    <circle cx="481.6" cy="177.2" r="3.2"/>
    <circle cx="342.7" cy="241.2" r="3.2"/>
    <circle cx="269.6" cy="268.1" r="3.2"/>
    <circle cx="461.2" cy="205.3" r="3.2"/>
    <circle cx="563.9" cy="169.6" r="3.2"/>
    <circle cx="479.5" cy="195.0" r="3.2"/>
    <circle cx="494.6" cy="184.2" r="3.2"/>
    <circle cx="496.6" cy="190.4" r="3.2"/>
    <circle cx="369.4" cy="236.3" r="3.2"/>
    <circle cx="475.1" cy="171.9" r="3.2"/>
    <circle cx="497.2" cy="182.8" r="3.2"/>
    <circle cx="448.8" cy="229.9" r="3.2"/>
    <circle cx="517.9" cy="191.4" r="3.2"/>
    <circle cx="550.6" cy="164.8" r="3.2"/>
    <circle cx="452.6" cy="215.1" r="3.2"/>
    <circle cx="652.1" cy="128.9" r="3.2"/>
    <circle cx="553.3" cy="142.3" r="3.2"/>
    <circle cx="373.9" cy="251.6" r="3.2"/>
    <circle cx="496.3" cy="162.7" r="3.2"/>
    <circle cx="324.0" cy="258.1" r="3.2"/>
    <circle cx="317.6" cy="256.7" r="3.2"/>
    <circle cx="366.2" cy="232.2" r="3.2"/>
    <circle cx="297.8" cy="270.2" r="3.2"/>
    <circle cx="634.0" cy="151.7" r="3.2"/>
    <circle cx="331.0" cy="251.0" r="3.2"/>
    <circle cx="326.3" cy="266.7" r="3.2"/>
    <circle cx="628.2" cy="126.5" r="3.2"/>
    <circle cx="656.6" cy="126.1" r="3.2"/>
    <circle cx="430.5" cy="246.9" r="3.2"/>
    <circle cx="607.6" cy="139.8" r="3.2"/>
    <circle cx="333.9" cy="259.6" r="3.2"/>
    <circle cx="406.4" cy="212.6" r="3.2"/>
    <circle cx="347.9" cy="249.1" r="3.2"/>
    <circle cx="275.9" cy="250.1" r="3.2"/>
    <circle cx="494.1" cy="187.9" r="3.2"/>
    <circle cx="403.3" cy="219.1" r="3.2"/>
    <circle cx="522.6" cy="179.4" r="3.2"/>
    <circle cx="669.9" cy="119.6" r="3.2"/>
    <circle cx="589.7" cy="143.9" r="3.2"/>
    <circle cx="376.4" cy="231.1" r="3.2"/>
    <circle cx="284.2" cy="263.1" r="3.2"/>
    <circle cx="320.9" cy="260.7" r="3.2"/>
    <circle cx="440.3" cy="186.6" r="3.2"/>
    <circle cx="373.5" cy="243.2" r="3.2"/>
    <circle cx="328.9" cy="234.0" r="3.2"/>
    <circle cx="553.8" cy="170.9" r="3.2"/>
    <circle cx="304.5" cy="239.6" r="3.2"/>
    <circle cx="441.5" cy="198.8" r="3.2"/>
    <circle cx="297.5" cy="243.7" r="3.2"/>
    <circle cx="595.1" cy="154.2" r="3.2"/>
    <circle cx="302.2" cy="255.3" r="3.2"/>
    <circle cx="620.0" cy="141.7" r="3.2"/>
    <circle cx="453.1" cy="209.4" r="3.2"/>
    <circle cx="646.1" cy="115.0" r="3.2"/>
  </g>
  <line x1="64" y1="348" x2="880" y2="40" stroke="#ffc878" stroke-opacity="0.45" stroke-dasharray="4 4"/>
  <text x="64" y="382" fill="#9a97ad" font-size="12" font-family="system-ui">报告把握 →（虚线 = 完美校准）</text>
  <text x="64" y="30" fill="#9a97ad" font-size="12" font-family="system-ui">真实校准把握 ↑</text>
  <text x="124" y="90" fill="#6fce9c" font-size="14" font-family="system-ui">B 诚实 · 贴在对角线上</text>
  <text x="124" y="120" fill="#e29a5b" font-size="14" font-family="system-ui">A 不诚实 · 飘在天上</text>
</svg>
